<svg width="39" height="48" viewBox="0 0 39 48" fill="none" xmlns="http://www.w3.org/2000/svg">
<path id="Vector" fill-rule="evenodd" clip-rule="evenodd" d="M21.1797 0.69537L30.6798 10.1954C31.0399 10.5556 31.2746 11.0219 31.3495 11.5257C31.4243 12.0294 31.3352 12.5439 31.0954 12.9932C30.5088 14.0928 29.592 14.8338 28.6966 15.3373L35.4298 22.0705C35.875 22.5158 36.1251 23.1198 36.1251 23.7496C36.1251 24.3794 35.875 24.9833 35.4298 25.4287C34.2945 26.564 32.86 27.2575 31.549 27.6897L37.8048 33.9455C38.0911 34.2319 38.2995 34.5868 38.41 34.9765C38.5205 35.3661 38.5295 35.7775 38.4363 36.1717C38.343 36.5658 38.1504 36.9295 37.877 37.2283C37.6035 37.527 37.2581 37.7508 36.8738 37.8785C35.2303 38.4224 33.5369 38.8024 31.8411 39.142C30.5539 39.3985 29.0505 39.655 27.3761 39.8688L28.8795 44.3742C28.9984 44.7312 29.0308 45.1114 28.974 45.4834C28.9171 45.8554 28.7727 46.2086 28.5526 46.5138C28.3325 46.8191 28.043 47.0676 27.7079 47.239C27.3729 47.4104 27.0019 47.4998 26.6256 47.4997H12.3756C11.9992 47.4998 11.6283 47.4104 11.2933 47.239C10.9582 47.0676 10.6687 46.8191 10.4486 46.5138C10.2285 46.2086 10.0841 45.8554 10.0272 45.4834C9.97039 45.1114 10.0028 44.7312 10.1217 44.3742L11.6251 39.8688C10.1286 39.6791 8.63937 39.4367 7.16005 39.142C5.89026 38.8877 4.62991 38.5882 3.38141 38.2443L2.12265 37.8785C1.73866 37.7503 1.39381 37.526 1.12086 37.2271C0.847917 36.9281 0.655926 36.5643 0.563122 36.1702C0.470319 35.7762 0.479785 35.3649 0.59062 34.9756C0.701456 34.5862 0.909983 34.2316 1.1964 33.9455L7.45217 27.6897C6.14117 27.2598 4.70666 26.564 3.57141 25.4287C3.12616 24.9833 2.87604 24.3794 2.87604 23.7496C2.87604 23.1198 3.12616 22.5158 3.57141 22.0705L10.3046 15.3373C9.40918 14.8338 8.49243 14.0928 7.9058 12.9932C7.66595 12.5439 7.57688 12.0294 7.65171 11.5257C7.72655 11.0219 7.96133 10.5556 8.32143 10.1954L17.8215 0.69537C18.2668 0.250125 18.8708 0 19.5006 0C20.1304 0 20.7343 0.250125 21.1797 0.69537ZM22.5145 40.2986C20.835 40.3815 19.1529 40.3958 17.4723 40.3414L16.4867 40.2986L15.6697 42.7497H23.3315L22.5145 40.2986ZM19.5006 5.73276L13.6296 11.6038L13.8671 11.6727L14.3112 11.7748L14.9667 11.884C15.8763 11.979 16.6696 12.5728 16.9855 13.4397C17.1391 13.8644 17.1684 14.3242 17.07 14.7651C16.9716 15.206 16.7494 15.6096 16.4297 15.9287L9.1218 23.2366C10.1264 23.5453 11.2712 23.7496 12.3803 23.7496C12.8496 23.7506 13.308 23.8906 13.6977 24.152C14.0875 24.4133 14.3911 24.7843 14.5702 25.218C14.7494 25.6517 14.796 26.1288 14.7042 26.589C14.6125 27.0492 14.3865 27.4719 14.0547 27.8037L7.49967 34.3611L8.72043 34.6057C11.5182 35.133 15.2683 35.6246 19.5006 35.6246C22.8927 35.6185 26.2779 35.3181 29.6181 34.7269L30.9101 34.4822L31.5039 34.3611L24.9465 27.8061C24.6314 27.491 24.4113 27.0936 24.3113 26.6594C24.2114 26.2251 24.2356 25.7715 24.3813 25.3503C24.527 24.9292 24.7882 24.5575 25.1351 24.2778C25.482 23.9981 25.9006 23.8217 26.343 23.7686L26.6232 23.7496C27.7272 23.7308 28.8231 23.5581 29.8794 23.2366L22.5715 15.9287C22.2707 15.6281 22.0562 15.2522 21.9503 14.8404C21.8444 14.4286 21.851 13.9959 21.9694 13.5875C22.0879 13.1791 22.3137 12.81 22.6235 12.5187C22.9333 12.2274 23.3156 12.0246 23.7305 11.9315L24.4976 11.8128L24.9061 11.7273C25.0549 11.6956 25.2101 11.6545 25.3716 11.6038L19.5006 5.73276Z" fill="#F8F8F4"/>
</svg>
